<svg width="191" height="84" viewBox="0 0 191 84" fill="none" xmlns="http://www.w3.org/2000/svg">
<path d="M46.0789 71.487C45.3669 71.487 44.3879 70.7157 43.1419 69.173C41.8959 67.571 41.2729 66.058 41.2729 64.634C41.2729 63.21 42.5783 57.3953 45.1889 47.19C44.4176 46.8933 43.7353 46.389 43.1419 45.677C42.6079 44.9057 42.3409 44.0453 42.3409 43.096C42.3409 42.3247 43.8836 41.4643 46.9689 40.515C50.9443 24.9697 52.9319 15.328 52.9319 11.59C52.9319 10.5813 53.0506 9.899 53.2879 9.54299C53.5846 9.12766 54.1186 8.92 54.8899 8.92C55.7206 8.92 56.7886 9.83966 58.0939 11.679C59.4586 13.5183 60.1409 15.595 60.1409 17.909C60.1409 20.1637 58.6873 27.0167 55.7799 38.468C63.6119 36.866 71.2956 35.8277 78.8309 35.353C81.8569 23.0117 83.3699 15.0907 83.3699 11.59C83.3699 9.81 83.9633 8.92 85.1499 8.92C86.1586 8.92 87.3453 9.83966 88.7099 11.679C90.0746 13.5183 90.7569 15.4467 90.7569 17.464C90.7569 19.422 89.4219 25.4443 86.7519 35.531C89.4813 35.9463 90.8459 36.777 90.8459 38.023C90.8459 39.2097 89.0066 40.1887 85.3279 40.96C83.4293 47.9613 82.1239 52.8267 81.4119 55.556C80.7593 58.226 80.2253 60.362 79.8099 61.964C79.3946 63.566 78.9496 65.168 78.4749 66.77C77.6443 69.9147 76.9026 71.487 76.2499 71.487C75.4193 71.487 74.4403 70.8047 73.3129 69.44C72.2449 68.016 71.7109 66.5623 71.7109 65.079C71.7109 63.5957 73.4909 55.9713 77.0509 42.206C68.3883 43.3927 60.5859 44.7573 53.6439 46.3C52.8133 49.3853 52.0123 52.3817 51.2409 55.289C50.5289 58.137 49.9653 60.362 49.5499 61.964C49.1346 63.566 48.6896 65.168 48.2149 66.77C47.3843 69.9147 46.6723 71.487 46.0789 71.487ZM105.613 71.309C104.901 71.309 103.952 70.597 102.765 69.173C101.638 67.749 101.074 66.4437 101.074 65.257C101.074 64.0703 102.824 55.7933 106.325 40.426C109.885 24.9993 111.695 15.4467 111.754 11.768C111.754 10.7593 111.873 10.077 112.11 9.721C112.407 9.30566 112.97 9.098 113.801 9.098C114.691 9.098 115.818 10.0177 117.183 11.857C118.607 13.6963 119.319 15.684 119.319 17.82C119.319 19.8967 117.183 29.6273 112.911 47.012C112.496 48.614 111.932 50.928 111.22 53.954C110.508 56.9207 109.944 59.205 109.529 60.807C109.114 62.409 108.669 64.1593 108.194 66.058C107.185 69.5587 106.325 71.309 105.613 71.309ZM130.139 62.142C131.147 60.896 132.156 60.273 133.165 60.273C134.173 60.273 135.39 61.7267 136.814 64.634C138.238 67.482 138.95 69.618 138.95 71.042C138.95 71.4573 138.653 71.932 138.06 72.466C137.466 73 136.903 73.267 136.369 73.267C134.885 73.267 133.224 72.3473 131.385 70.508C129.545 68.6093 128.626 67.0667 128.626 65.88C128.626 64.634 129.13 63.388 130.139 62.142ZM141.62 0.909994C142.747 0.909994 144.29 1.622 146.248 3.046C148.206 4.47 149.185 5.59733 149.185 6.428C149.185 11.4713 147.879 20.3417 145.269 33.039C142.717 45.7363 140.67 52.085 139.128 52.085C138.178 52.085 137.288 51.6103 136.458 50.661C135.627 49.6523 135.212 48.614 135.212 47.546C135.152 47.19 135.508 45.054 136.28 41.138C137.11 37.222 137.971 31.7337 138.861 24.673C139.751 17.553 140.196 10.4033 140.196 3.224C140.196 1.68133 140.67 0.909994 141.62 0.909994Z" fill="#EED9D9"/>
</svg>
