<svg width="219" height="50" viewBox="0 0 219 50" fill="none" xmlns="http://www.w3.org/2000/svg">
<path d="M218.649 26.85C218.649 29.3233 217.295 31.3533 214.589 32.94C211.929 34.48 208.895 35.25 205.489 35.25C202.129 35.25 199.072 34.8766 196.319 34.13C195.665 36.1833 195.339 38.0267 195.339 39.66C195.339 41.2467 195.829 42.4833 196.809 43.37C197.835 44.2567 199.492 44.7 201.779 44.7C204.112 44.7 206.492 44.3033 208.919 43.51C211.392 42.67 212.745 42.25 212.979 42.25C214.192 42.25 214.799 42.7167 214.799 43.65C214.799 44.91 213.375 46.2867 210.529 47.78C207.682 49.2267 204.905 49.95 202.199 49.95C198.559 49.95 195.595 48.8767 193.309 46.73C191.022 44.5367 189.879 41.7833 189.879 38.47C189.879 35.1567 190.765 31.7033 192.539 28.11C194.312 24.47 196.599 21.4133 199.399 18.94C202.199 16.4667 204.975 15.23 207.729 15.23C210.482 15.23 212.979 16.5366 215.219 19.15C217.505 21.7633 218.649 24.33 218.649 26.85ZM208.079 20.76C206.352 20.76 204.555 21.67 202.689 23.49C200.822 25.2633 199.235 27.48 197.929 30.14C199.795 30.56 201.919 30.77 204.299 30.77C206.679 30.77 208.755 30.3967 210.529 29.65C212.302 28.8567 213.189 27.83 213.189 26.57C213.189 25.31 212.605 24.0266 211.439 22.72C210.319 21.4133 209.199 20.76 208.079 20.76Z" fill="#1E26EA"/>
<path d="M180.296 15.23C181.696 15.23 182.933 16.21 184.006 18.17C185.126 20.0833 185.686 22.2767 185.686 24.75C185.686 27.1767 185.243 30.35 184.356 34.27C183.516 38.19 182.373 41.7834 180.926 45.05C179.479 48.3167 178.056 49.95 176.656 49.95C175.676 49.95 175.186 49.32 175.186 48.06C175.186 46.7533 175.979 43.6033 177.566 38.61C179.199 33.57 180.016 29.58 180.016 26.64C180.016 23.6533 179.549 22.16 178.616 22.16C177.449 22.16 176.096 23.1867 174.556 25.24C173.063 27.2933 171.453 29.7667 169.726 32.66C167.999 35.5533 167.066 37.1167 166.926 37.35C166.786 37.5367 166.599 37.8167 166.366 38.19C166.179 38.5634 165.946 38.96 165.666 39.38C165.433 39.8 164.779 41.06 163.706 43.16C162.679 45.26 161.769 46.9167 160.976 48.13C160.183 49.2967 159.483 49.88 158.876 49.88C158.316 49.88 157.686 49.5067 156.986 48.76C156.286 48.0134 155.936 47.3133 155.936 46.66C155.936 46.0067 156.356 44.6533 157.196 42.6C159.623 36.5333 160.836 30.8867 160.836 25.66C160.836 24.68 160.626 23.8633 160.206 23.21C159.786 22.51 159.319 22.16 158.806 22.16C158.293 22.16 157.756 22.3933 157.196 22.86C156.636 23.28 155.936 24.0733 155.096 25.24C154.256 26.36 153.509 27.4333 152.856 28.46C152.203 29.4867 151.199 31.0967 149.846 33.29C148.539 35.4367 147.536 37.0467 146.836 38.12C146.183 39.1467 145.413 40.36 144.526 41.76C143.639 43.1134 142.939 44.1633 142.426 44.91C141.959 45.6567 141.423 46.4733 140.816 47.36C139.556 49.0867 138.623 49.95 138.016 49.95C137.456 49.95 136.709 49.4367 135.776 48.41C134.843 47.3367 134.376 46.5433 134.376 46.03C134.376 45.47 134.469 44.7933 134.656 44C134.843 43.2067 135.029 42.4367 135.216 41.69C135.449 40.9434 135.776 39.8467 136.196 38.4C136.663 36.9067 137.176 35.18 137.736 33.22C138.343 31.2133 138.786 28.4833 139.066 25.03C139.393 21.53 139.626 18.9867 139.766 17.4C139.906 15.7667 140.303 14.95 140.956 14.95C141.983 14.95 142.986 15.4867 143.966 16.56C144.993 17.6333 145.506 18.7067 145.506 19.78C145.506 23.8867 143.966 30.6533 140.886 40.08C146.113 30.28 149.403 24.47 150.756 22.65C152.109 20.83 153.276 19.36 154.256 18.24C156.076 16.2333 157.919 15.23 159.786 15.23C160.906 15.23 162.236 16.21 163.776 18.17C165.363 20.0833 166.156 22.02 166.156 23.98C166.156 25.94 165.876 28.3667 165.316 31.26C170.823 20.5733 175.816 15.23 180.296 15.23Z" fill="#1E26EA"/>
<path d="M126.085 17.19C126.271 16.4433 126.458 15.93 126.645 15.65C126.831 15.37 127.228 15.23 127.835 15.23C128.488 15.23 129.258 15.8366 130.145 17.05C131.078 18.2633 131.545 19.43 131.545 20.55C131.545 21.1567 130.518 24.75 128.465 31.33C126.411 37.91 124.825 43.1367 123.705 47.01C123.145 48.97 122.351 49.95 121.325 49.95C120.718 49.95 120.205 49.6933 119.785 49.18C119.365 48.6667 119.155 47.7333 119.155 46.38C119.155 45.0266 119.691 42.5767 120.765 39.03C118.805 42.2033 116.681 44.8167 114.395 46.87C112.108 48.9233 110.008 49.95 108.095 49.95C106.228 49.95 104.455 49.0633 102.775 47.29C101.095 45.5167 100.255 43.6967 100.255 41.83C100.255 37.3967 101.538 31.8667 104.105 25.24C106.718 18.5666 108.888 15.23 110.615 15.23C111.455 15.23 112.178 15.6266 112.785 16.42C113.438 17.1666 113.765 18.03 113.765 19.01C113.765 19.43 113.135 20.9466 111.875 23.56C110.615 26.1266 109.355 29.16 108.095 32.66C106.835 36.1133 106.205 39.1467 106.205 41.76C106.205 42.5067 106.438 43.1367 106.905 43.65C107.371 44.1167 107.931 44.35 108.585 44.35C110.358 44.35 112.458 42.7867 114.885 39.66C117.358 36.5333 119.598 32.8933 121.605 28.74C123.611 24.5866 125.105 20.7367 126.085 17.19Z" fill="#1E26EA"/>
<path d="M91.5201 15.23C93.1067 15.23 94.6001 16.1166 96.0001 17.89C97.4001 19.6167 98.1001 21.1333 98.1001 22.44C98.1001 23.2333 97.7267 23.63 96.9801 23.63C96.4667 23.63 95.6734 23.2333 94.6001 22.44C93.5267 21.6 92.4301 21.18 91.3101 21.18C90.1901 21.18 88.4167 21.8333 85.9901 23.14C83.6101 24.4467 82.4201 25.8233 82.4201 27.27C82.4201 28.3433 84.5667 30.1866 88.8601 32.8C90.4934 33.8266 91.9634 35.1567 93.2701 36.79C94.6234 38.3767 95.3001 40.1033 95.3001 41.97C95.3001 43.79 94.0167 45.5867 91.4501 47.36C88.9301 49.0867 85.9667 49.95 82.5601 49.95C79.2001 49.95 76.2134 49.1333 73.6001 47.5C71.0334 45.8667 69.7501 44.3266 69.7501 42.88C69.7501 42.2733 69.8901 41.8066 70.1701 41.48C70.4967 41.1066 70.8934 40.92 71.3601 40.92C71.8267 40.92 72.4801 41.2233 73.3201 41.83C75.8401 43.65 78.4534 44.56 81.1601 44.56C83.9134 44.56 85.8967 44.2567 87.1101 43.65C88.3234 42.9967 88.9301 42.1566 88.9301 41.13C88.9301 40.0566 88.2534 38.9366 86.9001 37.77C85.5467 36.5566 84.0534 35.4833 82.4201 34.55C80.8334 33.6166 79.3634 32.4733 78.0101 31.12C76.6567 29.7667 75.9801 28.39 75.9801 26.99C75.9801 24.5166 77.9167 21.95 81.7901 19.29C85.7101 16.5833 88.9534 15.23 91.5201 15.23Z" fill="#1E26EA"/>
<path d="M67.9164 26.85C67.9164 29.3233 66.563 31.3533 63.8564 32.94C61.1964 34.48 58.163 35.25 54.7564 35.25C51.3964 35.25 48.3397 34.8766 45.5864 34.13C44.933 36.1833 44.6064 38.0267 44.6064 39.66C44.6064 41.2467 45.0964 42.4833 46.0764 43.37C47.103 44.2567 48.7597 44.7 51.0464 44.7C53.3797 44.7 55.7597 44.3033 58.1864 43.51C60.6597 42.67 62.013 42.25 62.2464 42.25C63.4597 42.25 64.0664 42.7167 64.0664 43.65C64.0664 44.91 62.643 46.2867 59.7964 47.78C56.9497 49.2267 54.173 49.95 51.4664 49.95C47.8264 49.95 44.863 48.8767 42.5764 46.73C40.2897 44.5367 39.1464 41.7833 39.1464 38.47C39.1464 35.1567 40.033 31.7033 41.8064 28.11C43.5797 24.47 45.8664 21.4133 48.6664 18.94C51.4664 16.4667 54.243 15.23 56.9964 15.23C59.7497 15.23 62.2464 16.5366 64.4864 19.15C66.773 21.7633 67.9164 24.33 67.9164 26.85ZM57.3464 20.76C55.6197 20.76 53.823 21.67 51.9564 23.49C50.0897 25.2633 48.503 27.48 47.1964 30.14C49.063 30.56 51.1864 30.77 53.5664 30.77C55.9464 30.77 58.023 30.3967 59.7964 29.65C61.5697 28.8567 62.4564 27.83 62.4564 26.57C62.4564 25.31 61.873 24.0266 60.7064 22.72C59.5864 21.4133 58.4664 20.76 57.3464 20.76Z" fill="#1E26EA"/>
<path d="M3.93748 49.88C3.23748 49.88 2.44414 49.3667 1.55748 48.34C0.670811 47.3133 0.227478 46.2867 0.227478 45.26C0.227478 44.1867 1.51081 39.1233 4.07748 30.07C6.64415 21.0167 8.11415 14.1333 8.48748 9.42C7.88081 9.04666 7.34415 8.46333 6.87748 7.67C6.41081 6.87666 6.17748 6.17666 6.17748 5.57C6.17748 4.49666 7.76414 3.4 10.9375 2.28C14.1108 1.11333 17.6108 0.529999 21.4375 0.529999C25.3108 0.529999 28.6475 1.46333 31.4475 3.33C34.2941 5.15 35.7175 7.74 35.7175 11.1C35.7175 13.3867 35.0641 15.5333 33.7575 17.54C32.4975 19.5 30.9341 21.11 29.0675 22.37C27.2475 23.63 25.4275 24.75 23.6075 25.73C21.7875 26.71 20.2241 27.5267 18.9175 28.18C17.6575 28.7867 17.0275 29.23 17.0275 29.51C17.0275 30.5367 17.8208 31.8667 19.4075 33.5C21.0408 35.1333 22.1841 36.2533 22.8375 36.86C23.4908 37.4667 24.3541 38.2833 25.4275 39.31C26.5008 40.29 27.5041 41.1767 28.4375 41.97C29.4175 42.7633 30.1875 43.4167 30.7475 43.93C31.3541 44.4433 31.9608 44.98 32.5675 45.54C33.7341 46.6133 34.3175 47.4767 34.3175 48.13C34.3175 49.25 33.5475 49.81 32.0075 49.81C29.2075 49.81 25.2175 47.3833 20.0375 42.53C14.8575 37.63 11.6841 33.4767 10.5175 30.07C8.32414 37.35 7.06414 41.5733 6.73748 42.74C6.41081 43.86 6.03748 45.0267 5.61748 46.24C4.87081 48.6667 4.31081 49.88 3.93748 49.88ZM14.5075 11.31C14.5075 14.3433 13.5275 19.36 11.5675 26.36C12.3608 25.7533 13.8775 24.8667 16.1175 23.7C18.3575 22.4867 20.3641 21.39 22.1375 20.41C23.9575 19.3833 25.6141 18.03 27.1075 16.35C28.6008 14.67 29.3475 12.92 29.3475 11.1C29.3475 8.20666 26.8275 6.76 21.7875 6.76C19.5008 6.76 16.8408 7.34333 13.8075 8.50999C14.2741 9.53666 14.5075 10.47 14.5075 11.31Z" fill="#1E26EA"/>
</svg>
