<svg width="94" height="34" viewBox="0 0 94 34" fill="none" xmlns="http://www.w3.org/2000/svg">
<path d="M89.183 33.414C86.9443 33.414 85.2729 32.8007 84.1689 31.574C83.0649 30.3167 82.5129 28.676 82.5129 26.652V3.32999C82.5129 2.31799 82.8349 1.58199 83.4789 1.12199C84.1536 0.631321 85.1656 0.385986 86.515 0.385986V26.514C86.515 27.71 86.7603 28.5687 87.2509 29.09C87.7416 29.6113 88.5543 29.872 89.6889 29.872C90.8236 29.872 91.8663 29.596 92.8169 29.044C93.2156 29.504 93.4149 30.0407 93.4149 30.654C93.4149 31.39 93.0316 32.034 92.265 32.586C91.4983 33.138 90.471 33.414 89.183 33.414Z" fill="#1733CA" style="mix-blend-mode:hard-light"/>
<path d="M74.6283 33.414C72.3896 33.414 70.7183 32.8007 69.6143 31.574C68.5103 30.3167 67.9583 28.676 67.9583 26.652V3.32999C67.9583 2.31799 68.2803 1.58199 68.9243 1.12199C69.5989 0.631321 70.6109 0.385986 71.9603 0.385986V26.514C71.9603 27.71 72.2056 28.5687 72.6963 29.09C73.1869 29.6113 73.9996 29.872 75.1342 29.872C76.2689 29.872 77.3116 29.596 78.2622 29.044C78.6609 29.504 78.8603 30.0407 78.8603 30.654C78.8603 31.39 78.4769 32.034 77.7103 32.586C76.9436 33.138 75.9163 33.414 74.6283 33.414Z" fill="#1733CA" style="mix-blend-mode:hard-light"/>
<path d="M58.506 6.13599C57.6473 6.13599 56.9266 5.85999 56.344 5.30799C55.7613 4.75599 55.47 4.06599 55.47 3.23799C55.47 2.40999 55.7613 1.73532 56.344 1.21399C56.9266 0.661987 57.6473 0.385986 58.506 0.385986C59.334 0.385986 60.0393 0.661987 60.622 1.21399C61.2046 1.73532 61.496 2.40999 61.496 3.23799C61.496 4.06599 61.2046 4.75599 60.622 5.30799C60.0393 5.85999 59.334 6.13599 58.506 6.13599ZM56.482 12.53C56.482 11.518 56.804 10.782 57.448 10.322C58.1226 9.83132 59.1346 9.58599 60.484 9.58599V30.47C60.484 31.482 60.1466 32.2333 59.472 32.724C58.828 33.184 57.8313 33.414 56.482 33.414V12.53Z" fill="#1733CA" style="mix-blend-mode:hard-light"/>
<path d="M49.9439 32.402C49.6985 32.7087 49.3919 32.954 49.0239 33.138C48.6559 33.322 48.2419 33.414 47.7819 33.414C47.2912 33.414 46.8619 33.322 46.4939 33.138C46.1259 32.954 45.7885 32.6167 45.4819 32.126L38.1679 20.672L34.7639 23.708V30.516C34.7639 32.448 33.4452 33.414 30.8079 33.414V3.69799C30.8079 1.48999 32.1419 0.385986 34.8099 0.385986L34.7639 19.614L45.8959 9.63199C46.7852 10.46 47.2299 11.1653 47.2299 11.748C47.2299 12.1773 47.1225 12.53 46.9079 12.806C46.7239 13.0513 46.3559 13.4193 45.8039 13.91L40.6519 18.464L49.9439 32.402Z" fill="#1733CA" style="mix-blend-mode:hard-light"/>
<path d="M12.7044 33.414C10.1284 33.414 7.88974 33.046 5.9884 32.31C4.11774 31.574 2.69174 30.5927 1.7104 29.366C0.72907 28.1393 0.238403 26.8207 0.238403 25.41C0.238403 24.2447 0.545068 23.3553 1.1584 22.742C1.77173 22.098 2.70707 21.776 3.9644 21.776C3.9644 24.3827 4.74641 26.376 6.31041 27.756C7.87441 29.1053 10.0671 29.78 12.8884 29.78C15.5871 29.78 17.6571 29.3353 19.0984 28.446C20.5397 27.526 21.2604 26.1767 21.2604 24.398C21.2604 23.3247 20.9844 22.4507 20.4324 21.776C19.9111 21.0707 19.0064 20.4727 17.7184 19.982C16.4611 19.4607 14.6364 18.9393 12.2444 18.418C9.42307 17.8047 7.18441 17.0993 5.52841 16.302C3.87241 15.474 2.66108 14.4773 1.89441 13.312C1.12774 12.1467 0.7444 10.7053 0.7444 8.98799C0.7444 7.27065 1.21974 5.76799 2.17041 4.47999C3.15174 3.16132 4.53174 2.14932 6.31041 1.44399C8.08908 0.738653 10.1591 0.385986 12.5204 0.385986C14.7591 0.385986 16.7524 0.707987 18.5004 1.35199C20.2791 1.96532 21.6591 2.85465 22.6404 4.01999C23.6524 5.15465 24.1584 6.44265 24.1584 7.88399C24.1584 8.77332 23.8671 9.47865 23.2844 9.99999C22.7324 10.4907 21.8584 10.736 20.6624 10.736C20.3251 8.40532 19.4971 6.70332 18.1784 5.62999C16.8904 4.55665 15.0044 4.01999 12.5204 4.01999C10.1284 4.01999 8.28841 4.44932 7.00041 5.30799C5.71241 6.13599 5.06841 7.31665 5.06841 8.84999C5.06841 9.92332 5.29841 10.8127 5.75841 11.518C6.24907 12.1927 7.06174 12.7753 8.19641 13.266C9.36174 13.7567 10.9871 14.232 13.0724 14.692C16.2004 15.3667 18.6537 16.118 20.4324 16.946C22.2417 17.774 23.5451 18.786 24.3424 19.982C25.1397 21.178 25.5384 22.65 25.5384 24.398C25.5384 27.1887 24.3731 29.3967 22.0424 31.022C19.7117 32.6167 16.5991 33.414 12.7044 33.414Z" fill="#1733CA" style="mix-blend-mode:hard-light"/>
</svg>
